<svg id="Layer_1" data-name="Layer 1" xmlns="http://www.w3.org/2000/svg" xmlns:xlink="http://www.w3.org/1999/xlink" viewBox="0 0 51.33 65.5"><defs><style>.cls-1,.cls-2{stroke-miterlimit:10;stroke-width:2.65px;}.cls-1{fill:url(#linear-gradient);stroke:url(#linear-gradient-2);}.cls-2{fill:url(#linear-gradient-3);stroke:url(#linear-gradient-4);}.cls-3{fill:url(#linear-gradient-5);}.cls-4{fill:url(#linear-gradient-6);}.cls-5{fill:url(#linear-gradient-7);}.cls-6{fill:url(#linear-gradient-8);}</style><linearGradient id="linear-gradient" x1="209.01" y1="526.46" x2="231.7" y2="526.46" gradientUnits="userSpaceOnUse"><stop offset="0" stop-color="#00a79d"/><stop offset="1" stop-color="#1c75bc"/></linearGradient><linearGradient id="linear-gradient-2" x1="207.68" y1="530.24" x2="233.03" y2="530.24" xlink:href="#linear-gradient"/><linearGradient id="linear-gradient-3" x1="234.19" y1="518.02" x2="256.88" y2="518.02" xlink:href="#linear-gradient"/><linearGradient id="linear-gradient-4" x1="232.86" y1="514.24" x2="258.21" y2="514.24" xlink:href="#linear-gradient"/><linearGradient id="linear-gradient-5" x1="233.95" y1="532.89" x2="233.75" y2="557.6" xlink:href="#linear-gradient"/><linearGradient id="linear-gradient-6" x1="241.86" y1="532.95" x2="241.67" y2="557.67" xlink:href="#linear-gradient"/><linearGradient id="linear-gradient-7" x1="249.07" y1="533.01" x2="248.88" y2="557.72" xlink:href="#linear-gradient"/><linearGradient id="linear-gradient-8" x1="255.89" y1="533.06" x2="255.7" y2="557.78" xlink:href="#linear-gradient"/></defs><path class="cls-1" d="M231.7,508.83s-20.75-7.36-22.54,6,12.91,31.25,12.91,31.25-19.83-42.64,9.63-30.58Z" transform="translate(-207.68 -489.49)"/><path class="cls-2" d="M234.19,535.65s20.76,7.37,22.54-6-12.91-31.25-12.91-31.25S263.65,541,234.19,529Z" transform="translate(-207.68 -489.49)"/><path class="cls-3" d="M234,543.45a4.89,4.89,0,0,1,.66-.05,4.58,4.58,0,0,1,1.17.15,2.18,2.18,0,0,1,.92.48,1.72,1.72,0,0,1,.49.75,3.14,3.14,0,0,1,.12.89c0,.06,0,.18,0,.35s0,.4,0,.68l-.14,2.95c0,.28,0,.62,0,1l-.59,0-.65,0c.05-.57.08-1.11.11-1.64l.09-1.63c0-.57,0-1,0-1.28a2,2,0,0,0-.21-1,1.34,1.34,0,0,0-.68-.57,2.48,2.48,0,0,0-1-.2,2.55,2.55,0,0,0-1.4.38,2.42,2.42,0,0,0-.83,1,4.87,4.87,0,0,0-.28,1.39q-.12,1.11-.15,3.51l-.61,0-.66,0q.33-4.41.35-7.12h1.24" transform="translate(-207.68 -489.49)"/><path class="cls-4" d="M239.47,544.69c0-.2.08-.51.13-.91.56-.14,1.05-.24,1.46-.3a10.26,10.26,0,0,1,1.22-.08,5.55,5.55,0,0,1,1.18.12,2.4,2.4,0,0,1,.92.37,1.34,1.34,0,0,1,.48.6,2.13,2.13,0,0,1,.12.72c0,.33,0,.87-.07,1.63s-.09,1.46-.11,2.11,0,1.22,0,1.73l-.62,0-.64,0,.15-1.92.1-2.27a4.07,4.07,0,0,1-.36.27l-.28.14-.34.13-.73.21-.76.22a4.68,4.68,0,0,0-.77.31,2.47,2.47,0,0,0-.47.34,1.16,1.16,0,0,0-.26.36,1.1,1.1,0,0,0-.1.47,1,1,0,0,0,.23.66,1.15,1.15,0,0,0,.56.39,2.5,2.5,0,0,0,.82.11,4.4,4.4,0,0,0,.62,0,6.16,6.16,0,0,0,.87-.21,5.7,5.7,0,0,0-.23.84q-.51.09-.84.12c-.21,0-.41,0-.61,0a4,4,0,0,1-1.5-.22,1.63,1.63,0,0,1-.81-.69,1.92,1.92,0,0,1-.26-1,1.81,1.81,0,0,1,.09-.58,1.77,1.77,0,0,1,.26-.49,1.93,1.93,0,0,1,.46-.43,2.78,2.78,0,0,1,.62-.36l.76-.28c.29-.09.76-.21,1.4-.37a4,4,0,0,0,.53-.14l.39-.14a1.17,1.17,0,0,0,.29-.17,1.25,1.25,0,0,0,.23-.23,1.12,1.12,0,0,0,.16-.28.87.87,0,0,0,.05-.28.86.86,0,0,0-.23-.59,1.16,1.16,0,0,0-.59-.34,3.05,3.05,0,0,0-.85-.1,6.13,6.13,0,0,0-.94.07,6.57,6.57,0,0,0-.83.18C240.1,544.46,239.81,544.56,239.47,544.69Z" transform="translate(-207.68 -489.49)"/><path class="cls-5" d="M246.17,550.68q0-.45,0-1l.37-.43.21-.26,3.66-4.53h-1.37c-.75,0-1.56,0-2.42.07,0-.31,0-.62,0-.92h5.07l0,.57,0,.53c-.18.2-.35.41-.51.62l-3.69,4.53,1.33,0c1.13,0,2,0,2.65-.07a7.19,7.19,0,0,0-.07.91l-2.52,0Z" transform="translate(-207.68 -489.49)"/><path class="cls-6" d="M253.49,544.69a9.06,9.06,0,0,0,.14-.91c.56-.14,1.05-.24,1.46-.3a10.24,10.24,0,0,1,1.21-.08,5.58,5.58,0,0,1,1.19.12,2.4,2.4,0,0,1,.92.37,1.34,1.34,0,0,1,.48.6,2.13,2.13,0,0,1,.12.72c0,.33,0,.87-.07,1.63s-.09,1.46-.12,2.11,0,1.22,0,1.73l-.62,0-.64,0,.15-1.92.1-2.27a2.91,2.91,0,0,1-.37.27,1.71,1.71,0,0,1-.27.14l-.34.13-.73.21-.76.22a4.68,4.68,0,0,0-.77.31,2.19,2.19,0,0,0-.47.34,1.21,1.21,0,0,0-.27.36,1.27,1.27,0,0,0-.09.47,1,1,0,0,0,.23.66,1.15,1.15,0,0,0,.56.39,2.5,2.5,0,0,0,.82.11,4.49,4.49,0,0,0,.62,0,6.09,6.09,0,0,0,.86-.21,7.79,7.79,0,0,0-.22.84q-.51.09-.84.12c-.21,0-.42,0-.61,0a4,4,0,0,1-1.5-.22,1.63,1.63,0,0,1-.81-.69,1.92,1.92,0,0,1-.27-1,1.81,1.81,0,0,1,.1-.58,2.06,2.06,0,0,1,.25-.49,2.22,2.22,0,0,1,.47-.43,2.57,2.57,0,0,1,.62-.36l.76-.28c.29-.09.76-.21,1.4-.37a4,4,0,0,0,.53-.14l.38-.14a1.24,1.24,0,0,0,.3-.17,1.25,1.25,0,0,0,.23-.23,1.12,1.12,0,0,0,.16-.28.86.86,0,0,0,0-.28.85.85,0,0,0-.22-.59,1.2,1.2,0,0,0-.59-.34,3.05,3.05,0,0,0-.85-.1,6.13,6.13,0,0,0-.94.07,6.2,6.2,0,0,0-.83.18Z" transform="translate(-207.68 -489.49)"/></svg>