<svg id="Layer_1" data-name="Layer 1" xmlns="http://www.w3.org/2000/svg" viewBox="0 0 42 42"><defs><style>.cls-1{fill:#18151b;}.cls-2,.cls-3{fill:#fff;}.cls-2{fill-rule:evenodd;}.cls-3{stroke:#fff;stroke-miterlimit:10;stroke-width:0.74px;}</style></defs><circle class="cls-1" cx="21" cy="21" r="21"/><path class="cls-2" d="M507.46,372.61a13.31,13.31,0,0,0-11.69,19.49l.07.13-.9,7L502,398a12.84,12.84,0,0,0,5.6,1.18,13.29,13.29,0,1,0-.15-26.57ZM507.6,397a10.91,10.91,0,0,1-5.33-1.32l-1.15.21-1.89.35-1.61.28.19-1.55.26-2,.13-1a11.36,11.36,0,0,1-1.79-6A11.13,11.13,0,1,1,507.6,397Z" transform="translate(-486.54 -364.89)"/><path class="cls-3" d="M507.18,382.16s-5.8-2-6.29,1.7,3.64,8.7,3.64,8.7S499,380.69,507.18,384Z" transform="translate(-486.54 -364.89)"/><path class="cls-3" d="M507.9,389.63s5.8,2,6.28-1.7-3.64-8.71-3.64-8.71,5.58,11.87-2.65,8.55Z" transform="translate(-486.54 -364.89)"/></svg>