<svg id="Layer_1" data-name="Layer 1" xmlns="http://www.w3.org/2000/svg" viewBox="0 0 44 13.04"><defs><style>.cls-1{fill:#2bb673;}</style></defs><path class="cls-1" d="M517.22,302.16h8.08v2.34h-8.08Zm1.69-1.23a2.38,2.38,0,0,1,.64-1.8,2.92,2.92,0,0,1,2-.89h2.9v2.42h-2.15a.52.52,0,0,0-.44.19.8.8,0,0,0-.15.5v9.87h-2.77Z" transform="translate(-517.22 -298.24)"/><path class="cls-1" d="M524.71,302.12h2.76v9.06h-2.76Z" transform="translate(-517.22 -298.24)"/><path class="cls-1" d="M534,302.06h2.75l-3.25,9.06h-2.54l-3.24-9.06h2.82l1.69,5.68Z" transform="translate(-517.22 -298.24)"/><path class="cls-1" d="M538.23,310.77a3.55,3.55,0,0,1-1.64-1.38,4.16,4.16,0,0,1-.56-2.2v-1a4.56,4.56,0,0,1,.54-2.29,3.46,3.46,0,0,1,1.57-1.45,5.73,5.73,0,0,1,2.49-.5,4.39,4.39,0,0,1,2.35.6,3.76,3.76,0,0,1,1.49,1.72A6.57,6.57,0,0,1,545,307v.6h-7.16V306l4.64-.29,0,.08a2.06,2.06,0,0,0-.57-1.21,1.77,1.77,0,0,0-1.23-.43,2.17,2.17,0,0,0-1.54.52c-.37.34-.55.44-.55,1.06v1.55a1.78,1.78,0,0,0,.6,1.43,2.57,2.57,0,0,0,1.68.5,3.4,3.4,0,0,0,1.09-.17c.37-.11.7-.66,1-.87l2,.7a4,4,0,0,1-2,2.07,6.11,6.11,0,0,1-2,.36A6.34,6.34,0,0,1,538.23,310.77Z" transform="translate(-517.22 -298.24)"/><path class="cls-1" d="M545.75,302.23h3v9h-3Zm5.39,2.26a2.26,2.26,0,0,0-.67-.09,1.72,1.72,0,0,0-1.3.47,1.78,1.78,0,0,0-.46,1.29l-.21-2.35a3.32,3.32,0,0,1,1.12-1.27,2.83,2.83,0,0,1,1.52-.44,5.89,5.89,0,0,1,1.48.08c.35.12.37.39.63.62l-1.61,1.95A1.2,1.2,0,0,0,551.14,304.49Z" transform="translate(-517.22 -298.24)"/><path class="cls-1" d="M551.61,302.13h3v9.05h-3Zm5.88,2.52a1.28,1.28,0,0,0-.49-.26,2.33,2.33,0,0,0-.68-.09,1.61,1.61,0,0,0-1.75,1.76l-.21-2.35a3.36,3.36,0,0,1,1.12-1.26,4.52,4.52,0,0,1,2-.35" transform="translate(-517.22 -298.24)"/><circle class="cls-1" cx="42.24" cy="11.28" r="1.76"/></svg>