<svg id="Layer_1" data-name="Layer 1" xmlns="http://www.w3.org/2000/svg" viewBox="0 0 42 42"><defs><style>.cls-1{fill:#18151b;}.cls-2{fill:#fff;fill-rule:evenodd;}</style></defs><circle class="cls-1" cx="21" cy="21" r="21"/><path class="cls-2" d="M485.93,681.55h12.36a7.26,7.26,0,0,1,7.23,7.23v12.29a7.26,7.26,0,0,1-7.23,7.23H485.93a7.27,7.27,0,0,1-7.23-7.23V688.78a7.27,7.27,0,0,1,7.23-7.23Zm13.38,4.67h0a1.57,1.57,0,0,1,1.54,1.54h0a1.56,1.56,0,0,1-1.54,1.53h0a1.51,1.51,0,0,1-1.53-1.53h0a1.52,1.52,0,0,1,1.53-1.54Zm-7.23,1.41h.06a7.38,7.38,0,0,1,7.3,7.3h0a7.33,7.33,0,0,1-7.3,7.29h-.06a7.27,7.27,0,0,1-7.23-7.29h0a7.32,7.32,0,0,1,7.23-7.3Zm0,2.5h.06a4.83,4.83,0,0,1,4.8,4.8h0a4.85,4.85,0,0,1-4.8,4.86h-.06a4.85,4.85,0,0,1-4.8-4.86h0a4.83,4.83,0,0,1,4.8-4.8ZM486,683.85h12.22a5,5,0,0,1,5,5V701a5,5,0,0,1-5,5H486a5,5,0,0,1-5-5V688.85a5,5,0,0,1,5-5Z" transform="translate(-471.11 -673.93)"/></svg>