<svg id="Layer_1" data-name="Layer 1" xmlns="http://www.w3.org/2000/svg" viewBox="0 0 42 42"><defs><style>.cls-1{fill:#18151b;}.cls-2{fill:#fff;fill-rule:evenodd;}</style></defs><circle class="cls-1" cx="21" cy="21" r="21"/><path class="cls-2" d="M450.8,646.27h4.73v15.88H450.8Zm2.34-8.06a2.86,2.86,0,1,1,0,5.72,2.86,2.86,0,0,1,0-5.72Zm5.19,8.06H463v2.21a5.44,5.44,0,0,1,4.5-2.39h1.28a5.4,5.4,0,0,1,5.38,5.37v10.69h-4.67v-1.46h0v-7.13h0a3.11,3.11,0,0,0-3.1-3.21h0a3.36,3.36,0,0,0-3.39,3.21h0v8.59h-4.67Z" transform="translate(-441.48 -629.48)"/></svg>