<svg id="Layer_1" data-name="Layer 1" xmlns="http://www.w3.org/2000/svg" viewBox="0 0 449.69 449.69"><defs><style>.cls-1{fill:#231f20;}.cls-2{fill:#fff;}</style></defs><circle class="cls-1" cx="540" cy="540" r="224.85" transform="translate(-538.83 224.85) rotate(-45)"/><path class="cls-2" d="M455.51,421.18h0A20.5,20.5,0,0,1,476,441.69h0a20.51,20.51,0,0,1-20.5,20.51h0A20.51,20.51,0,0,1,435,441.69h0A20.51,20.51,0,0,1,455.51,421.18Zm0,62.27h0A20.5,20.5,0,0,1,476,504V638.82h-13.4A27.61,27.61,0,0,1,435,611.21V504A20.51,20.51,0,0,1,455.51,483.45Z" transform="translate(-315.15 -315.15)"/><path class="cls-2" d="M534.69,483.45h0A20.5,20.5,0,0,1,555.19,504V610.87a27.94,27.94,0,0,1-27.94,28H514.18V504A20.51,20.51,0,0,1,534.69,483.45ZM604,544.67q0-11.37-6.51-17.66T579,520.72q-11.37,0-17.59,6.36T555.19,545l-3.14-34.43q7-14.67,16.84-22t24.62-7.34q24.54,0,38,16.54T645,544.52v73.79a20.51,20.51,0,0,1-20.51,20.51h0A20.5,20.5,0,0,1,604,618.31Z" transform="translate(-315.15 -315.15)"/><rect class="cls-2" x="152.38" y="291.36" width="60.06" height="32.31"/></svg>