<svg id="Layer_1" data-name="Layer 1" xmlns="http://www.w3.org/2000/svg" viewBox="0 0 42 42"><defs><style>.cls-1{fill:#18151b;}.cls-2{fill:#fff;fill-rule:evenodd;}</style></defs><circle class="cls-1" cx="21" cy="21" r="21"/><path class="cls-2" d="M689.24,450c.74-.47,1.22-.14,1.49.6l.67,1.76s.47.94-.74,1.89c-.2.13-.2.13-.14.47a9.68,9.68,0,0,0,4.79,5.12c.34.21.41.21.74-.06l.88-.88c.61-.54.94-.74,1.48-.34s.81.61,1.22.88,1.08.74.4,1.55l-.6.74a2.31,2.31,0,0,1-2.77.88,12.71,12.71,0,0,1-9-8.63,3.39,3.39,0,0,1,1.62-4Zm4.72-7.22a13.29,13.29,0,1,1,0,26.57,12.78,12.78,0,0,1-5.59-1.21l-7.09,1.21,1-7-.07-.14A13.32,13.32,0,0,1,694,442.75Zm-8.36,23.6,1.89-.33,1.15-.2a11,11,0,0,0,5.32,1.34A11.13,11.13,0,1,0,682.84,456a11.36,11.36,0,0,0,1.75,6l-.14,1-.27,2-.2,1.55Z" transform="translate(-672.96 -435.04)"/></svg>